<svg xmlns="http://www.w3.org/2000/svg" viewBox="0 0 393.02 444.56"><defs><style>.a{fill:#fff;}</style></defs><path class="a" d="M376.25,109.84,204,10.4a15,15,0,0,0-15,0L16.77,109.84a15,15,0,0,0-7.5,13V321.72a15,15,0,0,0,7.5,13L189,434.16a15,15,0,0,0,15,0l172.24-99.45a15,15,0,0,0,7.5-13V122.83A15,15,0,0,0,376.25,109.84Zm-179.74,294L39.27,313.06V133.69c17.67,2.6,45.71,12.12,54.15,45.89,10,39.93,13.06,73.83,37.91,73.83,28.6,0,23.13-83.8,49.88-83.8s13.42,62.65,50.55,62.65c31.92,0,31.38-90.49,55.16-93.29,24.83-2.91,51,9.83,66.83,10.47V313.06Z"/></svg>