<svg id="Capa_1" data-name="Capa 1" xmlns="http://www.w3.org/2000/svg" xmlns:xlink="http://www.w3.org/1999/xlink" viewBox="0 0 1080 1080"><defs><style>.cls-1{fill:#fff;}.cls-2{fill:url(#Degradado_sin_nombre_2);}</style><linearGradient id="Degradado_sin_nombre_2" x1="338.79" y1="526.72" x2="721.86" y2="256.72" gradientUnits="userSpaceOnUse"><stop offset="0" stop-color="#ea5b0c"/><stop offset="1" stop-color="#f9b400"/></linearGradient></defs><title>logo</title><path class="cls-1" d="M102.46,794.26V794c0-27.09,20.42-49.28,49.69-49.28,18,0,28.72,6,37.57,14.7L176.38,774.8C169,768.13,161.54,764,152,764c-16.06,0-27.63,13.34-27.63,29.68V794c0,16.34,11.3,30,27.63,30,10.89,0,17.56-4.36,25.05-11.16l13.34,13.47c-9.8,10.49-20.69,17-39.07,17C123.29,843.27,102.46,821.63,102.46,794.26Z"/><path class="cls-1" d="M227.44,794.26V794c0-27.09,21.37-49.28,50.77-49.28s50.51,21.92,50.51,49V794c0,27.09-21.38,49.28-50.78,49.28S227.44,821.35,227.44,794.26Zm79.36,0V794c0-16.33-12-30-28.86-30s-28.59,13.34-28.59,29.68V794c0,16.34,12,30,28.86,30S306.8,810.6,306.8,794.26Z"/><path class="cls-1" d="M374.6,746.35h21v76.23h47.51v19.06H374.6Z"/><path class="cls-1" d="M486.09,746.35h22.6l25.05,40.29,25-40.29h22.59v95.29H560.55V779.43l-26.81,40.7h-.55l-26.54-40.3v61.81H486.09Z"/><path class="cls-1" d="M631.48,746.35h71.88V765H652.31v19.33h44.93V803H652.31v20H704v18.65H631.48Z"/><path class="cls-1" d="M749.92,746.35h19.33L813.9,805V746.35h20.7v95.29H816.76l-46.15-60.58v60.58H749.92Z"/><path class="cls-1" d="M917.37,745.67H936.7l40.84,96H955.62l-8.71-21.38h-40.3l-8.71,21.38H876.53Zm22,56.08-12.66-30.9-12.66,30.9Z"/><path class="cls-2" d="M719.74,272.46,547.5,173a15,15,0,0,0-15,0L360.26,272.46a15,15,0,0,0-7.5,13V484.34a15,15,0,0,0,7.5,13L532.5,596.78a15,15,0,0,0,15,0l172.24-99.45a15,15,0,0,0,7.5-13V285.45A15,15,0,0,0,719.74,272.46ZM540,566.47,382.76,475.68V295.87c22.18,1.87,62.11,10.3,71.12,46.33,10,39.93,13.06,73.83,37.91,73.83,28.59,0,23.12-83.8,49.88-83.8s13.42,62.65,50.54,62.65c31.93,0,30.63-84.91,62.79-93.72,18.62-5.1,32.71,2,42.24,6.45V475.68Z"/></svg>